<svg width="675" height="157" viewBox="0 0 675 157" fill="none" xmlns="http://www.w3.org/2000/svg">
<g clip-path="url(#clip0_357_2718)">
<path d="M126.889 105.15C126.889 75.2375 148.935 53.3008 180.197 53.3008C211.459 53.3008 233.515 75.2375 233.515 105.15C233.515 135.063 211.469 157 180.206 157C148.944 157 126.889 135.063 126.889 105.15ZM209.258 105.15C209.258 87.804 197.63 75.4367 180.197 75.4367C162.764 75.4367 150.936 87.766 150.936 105.15C150.936 122.535 162.755 134.864 180.197 134.864C197.639 134.864 209.258 122.497 209.258 105.15Z" fill="white"/>
<path d="M243.522 104.325V21.1118H267.35V70.249C274.365 59.2854 286.193 53.3009 300.424 53.3009C324.471 53.3009 349.719 70.4482 349.719 104.155C349.719 135.452 327.673 157 296.211 157C265.168 157 243.522 136.258 243.522 104.325ZM325.691 105.122C325.691 87.7756 313.872 75.4084 296.43 75.4084C278.988 75.4084 267.369 87.7377 267.369 105.122C267.369 122.506 278.997 134.864 296.42 134.864C313.843 134.864 325.691 122.497 325.691 105.151V105.122Z" fill="white"/>
<path d="M359.955 105.15C359.955 75.2375 382.001 53.3008 413.273 53.3008C444.545 53.3008 466.581 75.2375 466.581 105.15C466.581 135.063 444.535 157 413.273 157C382.011 157 359.955 135.063 359.955 105.15ZM442.324 105.15C442.324 87.804 430.705 75.4367 413.273 75.4367C395.84 75.4367 384.012 87.766 384.012 105.15C384.012 122.535 395.831 134.864 413.273 134.864C430.715 134.864 442.324 122.497 442.324 105.15Z" fill="white"/>
<path d="M477.599 116.522V20.998H501.427V55.8901H552.534V77.4285H501.446V116.522C501.446 129.677 508.261 134.864 518.078 134.864C527.896 134.864 534.701 129.876 534.701 116.522V113.923H558.529V116.522C558.529 143.836 542.097 157 518.04 157C493.984 157 477.599 143.836 477.599 116.522Z" fill="white"/>
<path d="M568.384 105.15C568.384 75.2375 590.43 53.3008 621.692 53.3008C652.954 53.3008 675 75.2375 675 105.15C675 135.063 652.954 157 621.692 157C590.43 157 568.384 135.063 568.384 105.15ZM650.753 105.15C650.753 87.804 639.134 75.4367 621.692 75.4367C604.25 75.4367 592.431 87.766 592.431 105.15C592.431 122.535 604.279 134.864 621.692 134.864C639.106 134.864 650.753 122.497 650.753 105.15Z" fill="white"/>
<path d="M0 51.5462C0 51.5462 5.85216 0 58.2357 0C90.8896 0 116.376 24.8673 116.376 56.9047C116.376 73.0277 106.54 95.9128 88.9357 106.44L119.34 154.914L90.1366 154.781L59.9894 107.246C59.9894 107.246 57.5685 101.812 59.713 96.6716C60.4221 94.7497 61.5884 93.0272 63.1121 91.6515C64.6358 90.2757 66.4716 89.2875 68.4627 88.7713C70.3689 88.2212 91.3375 81.9427 91.3375 56.9047C91.3375 40.1652 76.5737 24.507 57.8354 24.507C35.5133 24.507 25.1338 45.372 25.1338 51.5462H0Z" fill="white"/>
<path d="M57.2825 75.5123C66.9365 75.5123 74.7627 67.7248 74.7627 58.1185C74.7627 48.5121 66.9365 40.7246 57.2825 40.7246C47.6284 40.7246 39.8022 48.5121 39.8022 58.1185C39.8022 67.7248 47.6284 75.5123 57.2825 75.5123Z" fill="#DF6888"/>
<path d="M25.1528 66.5977H0.0666504V155.075H25.1528V66.5977Z" fill="white"/>
</g>
<defs>
<clipPath id="clip0_357_2718">
<rect width="675" height="157" fill="white"/>
</clipPath>
</defs>
</svg>
