<svg width="709" height="166" viewBox="0 0 709 166" fill="none" xmlns="http://www.w3.org/2000/svg">
<g clip-path="url(#clip0_357_2738)">
<path d="M133.13 110.87C133.13 79.3302 156.26 56.2002 189.06 56.2002C221.86 56.2002 244.99 79.3302 244.99 110.87C244.99 142.41 221.86 165.54 189.06 165.54C156.26 165.54 133.13 142.41 133.13 110.87ZM219.55 110.87C219.55 92.5802 207.35 79.5402 189.06 79.5402C170.77 79.5402 158.36 92.5802 158.36 110.87C158.36 129.16 170.77 142.2 189.06 142.2C207.35 142.2 219.55 129.16 219.55 110.87Z" fill="#0E0F2F"/>
<path d="M255.5 110.03V22.2598H280.52V74.0698C287.88 62.5098 300.29 56.1998 315.21 56.1998C340.44 56.1998 366.94 74.2798 366.94 109.82C366.94 142.83 343.81 165.54 310.8 165.54C277.79 165.54 255.5 143.67 255.5 110.03ZM341.71 110.87C341.71 92.5798 329.3 79.5398 311.01 79.5398C292.72 79.5398 280.52 92.5798 280.52 110.87C280.52 129.16 292.72 142.2 311.01 142.2C329.3 142.2 341.71 129.16 341.71 110.87Z" fill="#0E0F2F"/>
<path d="M377.66 110.87C377.66 79.3302 400.79 56.2002 433.59 56.2002C466.39 56.2002 489.52 79.3302 489.52 110.87C489.52 142.41 466.39 165.54 433.59 165.54C400.79 165.54 377.66 142.41 377.66 110.87ZM464.08 110.87C464.08 92.5802 451.88 79.5402 433.59 79.5402C415.3 79.5402 402.89 92.5802 402.89 110.87C402.89 129.16 415.3 142.2 433.59 142.2C451.88 142.2 464.08 129.16 464.08 110.87Z" fill="#0E0F2F"/>
<path d="M501.09 122.86V22.1401H526.11V58.9301H579.73V81.6401H526.11V122.85C526.11 136.73 533.26 142.19 543.56 142.19C553.86 142.19 561.01 136.93 561.01 122.85V120.12H586.03V122.85C586.03 151.66 568.79 165.53 543.55 165.53C518.31 165.53 501.08 151.65 501.08 122.85L501.09 122.86Z" fill="#0E0F2F"/>
<path d="M596.34 110.87C596.34 79.3302 619.47 56.2002 652.27 56.2002C685.07 56.2002 708.2 79.3302 708.2 110.87C708.2 142.41 685.07 165.54 652.27 165.54C619.47 165.54 596.34 142.41 596.34 110.87ZM682.76 110.87C682.76 92.5802 670.56 79.5402 652.27 79.5402C633.98 79.5402 621.57 92.5802 621.57 110.87C621.57 129.16 633.98 142.2 652.27 142.2C670.56 142.2 682.76 129.16 682.76 110.87Z" fill="#0E0F2F"/>
<path d="M0 54.35C0 54.35 6.14 0 61.1 0C95.35 0 122.09 26.22 122.09 60C122.09 77.04 111.77 101.13 93.3 112.23L125.2 163.34L94.56 163.2L62.94 113.08C62.94 113.08 60.4 107.35 62.66 101.93C65.07 96.14 69.1 94.39 71.84 93.6C73.86 93.02 95.84 86.4 95.84 60C95.84 42.35 80.34 25.84 60.69 25.84C37.27 25.84 26.38 47.86 26.38 54.36H0V54.35Z" fill="#0E0F2F"/>
<path d="M60.1 79.6199C70.2289 79.6199 78.44 71.4088 78.44 61.2799C78.44 51.151 70.2289 42.9399 60.1 42.9399C49.9711 42.9399 41.76 51.151 41.76 61.2799C41.76 71.4088 49.9711 79.6199 60.1 79.6199Z" fill="#DF6888"/>
<path d="M26.3901 70.2202H0.0700684V163.51H26.3901V70.2202Z" fill="#0E0F2F"/>
</g>
<defs>
<clipPath id="clip0_357_2738">
<rect width="708.2" height="165.54" fill="white"/>
</clipPath>
</defs>
</svg>
