<svg width="187" height="44" viewBox="0 0 187 44" fill="none" xmlns="http://www.w3.org/2000/svg">
<path d="M35.153 29.4689C35.153 21.0857 41.2604 14.9378 49.9213 14.9378C58.5821 14.9378 64.6922 21.0857 64.6922 29.4689C64.6922 37.8521 58.5847 44 49.9239 44C41.2631 44 35.153 37.8521 35.153 29.4689ZM57.9721 29.4689C57.9721 24.6075 54.7507 21.1415 49.9213 21.1415C45.0918 21.1415 41.8149 24.5968 41.8149 29.4689C41.8149 34.3409 45.0891 37.7963 49.9213 37.7963C54.7534 37.7963 57.9721 34.3303 57.9721 29.4689Z" fill="white"/>
<path d="M67.4647 29.2376V5.91663H74.066V19.6876C76.0094 16.6149 79.2862 14.9378 83.2285 14.9378C89.8905 14.9378 96.8851 19.7434 96.8851 29.1898C96.8851 37.9611 90.7777 44 82.0614 44C73.4613 44 67.4647 38.187 67.4647 29.2376ZM90.2284 29.4609C90.2284 24.5995 86.9542 21.1335 82.1221 21.1335C77.29 21.1335 74.0712 24.5888 74.0712 29.4609C74.0712 34.333 77.2927 37.7963 82.1195 37.7963C86.9463 37.7963 90.2284 34.3303 90.2284 29.4689V29.4609Z" fill="white"/>
<path d="M99.7209 29.4689C99.7209 21.0857 105.828 14.9378 114.492 14.9378C123.155 14.9378 129.26 21.0857 129.26 29.4689C129.26 37.8521 123.153 44 114.492 44C105.831 44 99.7209 37.8521 99.7209 29.4689ZM122.54 29.4689C122.54 24.6075 119.321 21.1415 114.492 21.1415C109.662 21.1415 106.386 24.5968 106.386 29.4689C106.386 34.3409 109.66 37.7963 114.492 37.7963C119.324 37.7963 122.54 34.3303 122.54 29.4689Z" fill="white"/>
<path d="M132.313 32.6558V5.88474H138.914V15.6634H153.072V21.6996H138.919V32.6558C138.919 36.3424 140.807 37.7963 143.527 37.7963C146.247 37.7963 148.132 36.3982 148.132 32.6558V31.9275H154.733V32.6558C154.733 40.3107 150.181 44 143.516 44C136.852 44 132.313 40.3107 132.313 32.6558Z" fill="white"/>
<path d="M157.463 29.4689C157.463 21.0857 163.571 14.9378 172.232 14.9378C180.893 14.9378 187 21.0857 187 29.4689C187 37.8521 180.893 44 172.232 44C163.571 44 157.463 37.8521 157.463 29.4689ZM180.283 29.4689C180.283 24.6075 177.064 21.1415 172.232 21.1415C167.4 21.1415 164.125 24.5968 164.125 29.4689C164.125 34.3409 167.407 37.7963 172.232 37.7963C177.056 37.7963 180.283 34.3303 180.283 29.4689Z" fill="white"/>
<path d="M0 14.4461C0 14.4461 1.62126 0 16.1334 0C25.1798 0 32.2405 6.96919 32.2405 15.9478C32.2405 20.4664 29.5155 26.88 24.6385 29.8304L33.0617 43.4152L24.9712 43.378L16.6193 30.0563C16.6193 30.0563 15.9486 28.5333 16.5427 27.0927C16.7392 26.5541 17.0623 26.0713 17.4844 25.6858C17.9065 25.3002 18.4151 25.0232 18.9667 24.8786C19.4948 24.7244 25.3039 22.9648 25.3039 15.9478C25.3039 11.2565 21.2138 6.86819 16.0225 6.86819C9.83849 6.86819 6.96299 12.7157 6.96299 14.4461H0Z" fill="white"/>
<path d="M15.8694 21.1627C18.5439 21.1627 20.7121 18.9802 20.7121 16.288C20.7121 13.5958 18.5439 11.4133 15.8694 11.4133C13.1949 11.4133 11.0267 13.5958 11.0267 16.288C11.0267 18.9802 13.1949 21.1627 15.8694 21.1627Z" fill="#DF6888"/>
<path d="M6.96822 18.6642H0.0184326V43.4604H6.96822V18.6642Z" fill="white"/>
</svg>
