<svg width="34" height="34" viewBox="0 0 34 34" fill="none" xmlns="http://www.w3.org/2000/svg">
<rect width="34" height="34" rx="10" fill="#2C2C2C"/>
<path d="M8.5 13.011C8.5 13.011 9.39816 5.09998 17.4377 5.09998C22.4492 5.09998 26.3607 8.91647 26.3607 13.8334C26.3607 16.3078 24.8511 19.8201 22.1493 21.4358L26.8156 28.8752L22.3336 28.8548L17.7068 21.5595C17.7068 21.5595 17.3353 20.7255 17.6644 19.9366C17.7732 19.6416 17.9522 19.3773 18.1861 19.1661C18.4199 18.955 18.7017 18.8033 19.0073 18.7241C19.2998 18.6397 22.518 17.6761 22.518 13.8334C22.518 11.2643 20.2521 8.86116 17.3762 8.86116C13.9504 8.86116 12.3574 12.0634 12.3574 13.011H8.5Z" fill="white"/>
<path d="M17.2913 16.6892C18.773 16.6892 19.9741 15.494 19.9741 14.0197C19.9741 12.5453 18.773 11.3502 17.2913 11.3502C15.8097 11.3502 14.6086 12.5453 14.6086 14.0197C14.6086 15.494 15.8097 16.6892 17.2913 16.6892Z" fill="#DF6888"/>
<path d="M12.3603 15.321H8.51025V28.9H12.3603V15.321Z" fill="white"/>
</svg>
